<svg width="36" height="37" viewBox="0 0 36 37" fill="none" xmlns="http://www.w3.org/2000/svg">
<g id="emojione:birthday-cake">
<path id="Vector" d="M18 35.8437C27.3198 35.8437 34.875 32.5823 34.875 28.5593C34.875 24.5362 27.3198 21.2749 18 21.2749C8.68019 21.2749 1.125 24.5362 1.125 28.5593C1.125 32.5823 8.68019 35.8437 18 35.8437Z" fill="#D0D0D0"/>
<path id="Vector_2" d="M4.33124 14.3374V27.3452C4.33124 30.6405 10.4625 33.2999 18 33.2999C25.5375 33.2999 31.6687 30.6405 31.6687 27.403V14.3374H4.33124Z" fill="#D3976E"/>
<g id="Group">
<path id="Vector_3" d="M31.6687 18.1531C31.6125 20.4656 23.0062 23.0093 18 23.0093C12.9937 23.0093 4.38749 20.4656 4.33124 18.1531V21.6796C11.3625 26.8828 24.6375 26.8828 31.6687 21.6796V18.1531Z" fill="#FFDD7D"/>
<path id="Vector_4" d="M31.6687 23.7031C31.6125 26.0156 23.0062 28.5594 18 28.5594C12.9937 28.5594 4.38749 26.0156 4.33124 23.7031V27.2297C11.3625 32.4328 24.6375 32.4328 31.6687 27.2297V23.7031Z" fill="#FFDD7D"/>
</g>
<path id="Vector_5" d="M4.33124 14.3374V24.1077C4.33124 24.628 4.78124 25.0905 5.39999 25.0905C5.96249 25.0905 6.46874 24.6858 6.46874 24.1077V21.853C6.46874 21.1593 7.08749 20.5812 7.87499 20.5812C8.66249 20.5812 9.28124 21.1593 9.28124 21.853V24.628C9.28124 25.4374 10.0125 26.1312 10.9125 26.1312C11.8125 26.1312 12.5437 25.4952 12.5437 24.628V21.7952C12.5437 21.0437 13.2187 20.4655 14.0062 20.4655C14.7937 20.4655 15.4687 21.0437 15.4687 21.7952V23.5874C15.4687 23.9921 15.8062 24.339 16.3125 24.339C16.7625 24.339 17.1562 23.9921 17.1562 23.5874V22.1421C17.1562 21.6218 17.6062 21.1593 18.225 21.1593C18.7875 21.1593 19.2937 21.564 19.2937 22.1421V24.5702C19.2937 25.3796 20.025 26.0733 20.925 26.0733C21.825 26.0733 22.5562 25.4374 22.5562 24.5702V21.853C22.5562 21.1593 23.175 20.5812 23.9625 20.5812C24.75 20.5812 25.3687 21.1593 25.3687 21.853V23.8765C25.3687 24.2812 25.7625 24.628 26.2125 24.628C26.6625 24.628 27.0562 24.2812 27.0562 23.8765V22.489C27.0562 22.1421 27.3937 21.853 27.7875 21.853C28.1812 21.853 28.5187 22.1421 28.5187 22.489V24.628C28.5187 25.4374 29.25 26.1312 30.15 26.1312C31.05 26.1312 31.7812 25.4952 31.7812 24.628V14.3952L4.33124 14.3374Z" fill="#A80038"/>
<path id="Vector_6" d="M18 20.2344C25.549 20.2344 31.6687 17.5943 31.6687 14.3375C31.6687 11.0808 25.549 8.44067 18 8.44067C10.4509 8.44067 4.33124 11.0808 4.33124 14.3375C4.33124 17.5943 10.4509 20.2344 18 20.2344Z" fill="#FF2C68"/>
<path id="Vector_7" d="M8.1 13.7593C8.04375 10.0015 24.2437 9.48121 24.3 12.8343C24.3562 15.3203 14.0062 15.4359 13.95 13.4703C13.8937 12.0828 20.3625 12.025 20.3625 13.0656C20.3625 14.1062 15.1312 14.2796 16.3687 12.95C14.2875 14.5687 20.925 14.6265 20.8687 13.1234C20.8125 11.389 13.05 11.6203 13.05 13.4125C13.1062 16.0718 25.0875 15.7828 25.0312 12.7765C24.975 8.84527 7.03125 9.01871 7.14375 13.7015C7.25625 18.8468 24.6937 20.6968 30.375 14.164C22.6687 20.1765 8.15625 17.2859 8.1 13.7593Z" fill="#FFA4A4"/>
<path id="Vector_8" d="M6.63751 6.7063V12.95C6.63751 13.8172 8.43751 13.7016 8.43751 12.95V6.7063C8.43751 5.83911 6.63751 5.83911 6.63751 6.7063Z" fill="#42ADE2"/>
<path id="Vector_9" d="M8.43751 7.28442L6.63751 8.26724V9.36567L8.43751 8.44067V7.28442ZM6.63751 11.2735V12.3141L8.43751 11.3891V10.2907L6.63751 11.2735Z" fill="#428BC1"/>
<path id="Vector_10" d="M8.49376 5.31865C8.49376 6.76396 6.63751 6.76396 6.63751 5.31865C6.63751 4.85615 7.59376 3.35303 7.59376 3.35303C7.59376 3.35303 8.49376 4.85615 8.49376 5.31865Z" fill="#FF8B00"/>
<path id="Vector_11" d="M8.04374 5.78115C8.04374 6.59053 7.08749 6.59053 7.08749 5.78115C7.08749 5.5499 7.53749 4.79834 7.53749 4.79834C7.53749 4.79834 8.04374 5.5499 8.04374 5.78115Z" fill="#FFF033"/>
<path id="Vector_12" d="M17.2125 4.1626V9.59697C17.2125 10.4642 18.7875 10.2907 18.7875 9.59697V4.1626C18.7875 3.29541 17.2125 3.29541 17.2125 4.1626Z" fill="#42ADE2"/>
<path id="Vector_13" d="M18.7875 4.625L17.2125 5.49219V6.475L18.7875 5.60781V4.625ZM17.2125 8.09375V9.01875L18.7875 8.20937V7.28438L17.2125 8.09375Z" fill="#428BC1"/>
<path id="Vector_14" d="M18.7875 2.89062C18.7875 4.22031 17.1562 4.22031 17.1562 2.89062C17.1562 2.48594 17.9437 1.15625 17.9437 1.15625C17.9437 1.15625 18.7875 2.48594 18.7875 2.89062Z" fill="#FF8B00"/>
<path id="Vector_15" d="M18.3938 3.29541C18.3938 4.10479 17.6063 4.10479 17.6063 3.29541C17.6063 3.06416 18 2.42822 18 2.42822C18 2.42822 18.3938 3.06416 18.3938 3.29541Z" fill="#FFF033"/>
<path id="Vector_16" d="M27.5063 6.7063V12.95C27.5063 13.8172 29.3063 13.7016 29.3063 12.95V6.7063C29.3063 5.83911 27.5063 5.83911 27.5063 6.7063Z" fill="#42ADE2"/>
<path id="Vector_17" d="M29.3063 7.28442L27.5063 8.26724V9.36567L29.3063 8.38286V7.28442ZM27.5063 11.2735V12.3141L29.3063 11.3313V10.2907L27.5063 11.2735Z" fill="#428BC1"/>
<path id="Vector_18" d="M29.3625 5.31865C29.3625 6.76396 27.5063 6.76396 27.5063 5.31865C27.5063 4.85615 28.4625 3.35303 28.4625 3.35303C28.4625 3.35303 29.3625 4.79834 29.3625 5.31865Z" fill="#FF8B00"/>
<path id="Vector_19" d="M28.9125 5.72354C28.9125 6.53291 27.9562 6.53291 27.9562 5.72354C27.9562 5.49229 28.4062 4.74072 28.4062 4.74072C28.4062 4.74072 28.9125 5.49229 28.9125 5.72354Z" fill="#FFF033"/>
<path id="Vector_20" d="M11.25 10.5797V18.1532C11.25 19.136 13.4437 18.9047 13.4437 18.1532V10.5797C13.4437 9.65474 11.25 9.65474 11.25 10.5797Z" fill="#9FE4FF"/>
<path id="Vector_21" d="M13.4437 11.3313L11.25 12.4297V13.8172L13.4437 12.661V11.3313ZM11.25 16.0719V17.3438L13.4437 16.2454V14.9735L11.25 16.0719Z" fill="#42ADE2"/>
<path id="Vector_22" d="M13.5 8.90322C13.5 10.4642 11.25 10.4642 11.25 8.90322C11.25 8.3251 12.375 6.4751 12.375 6.4751C12.375 6.4751 13.5 8.3251 13.5 8.90322Z" fill="#FF8B00"/>
<path id="Vector_23" d="M12.9375 9.42353C12.9375 10.2907 11.8125 10.2907 11.8125 9.42353C11.8125 9.13447 12.375 8.20947 12.375 8.20947C12.375 8.20947 12.9375 9.13447 12.9375 9.42353Z" fill="#FFF033"/>
<path id="Vector_24" d="M22.5 10.5796V18.1531C22.5 19.1359 24.6938 18.9046 24.6938 18.1531V10.5796C24.6938 9.59683 22.5 9.59683 22.5 10.5796Z" fill="#9FE4FF"/>
<path id="Vector_25" d="M24.6938 11.2734L22.5 12.4297V13.7594L24.6938 12.6609V11.2734ZM22.5 16.0719V17.3438L24.6938 16.1875V14.9156L22.5 16.0719Z" fill="#42ADE2"/>
<path id="Vector_26" d="M24.75 8.84536C24.75 10.4063 22.5 10.4063 22.5 8.84536C22.5 8.26724 23.625 6.41724 23.625 6.41724C23.625 6.41724 24.75 8.32505 24.75 8.84536Z" fill="#FF8B00"/>
<path id="Vector_27" d="M24.1875 9.42353C24.1875 10.2907 23.0625 10.2907 23.0625 9.42353C23.0625 9.13447 23.625 8.20947 23.625 8.20947C23.625 8.20947 24.1875 9.13447 24.1875 9.42353Z" fill="#FFF033"/>
</g>
</svg>
