<svg width="36" height="36" viewBox="0 0 36 36" fill="none" xmlns="http://www.w3.org/2000/svg">
<g id="noto:bell">
<path id="Vector" d="M14.9962 5.28753C14.9962 3.29347 16.6191 1.67065 18.6131 1.67065C20.6072 1.67065 22.23 3.29347 22.23 5.28753C22.23 7.28159 20.6072 8.9044 18.6131 8.9044C16.6191 8.9044 14.9962 7.2844 14.9962 5.28753ZM17.1 5.28753C17.1 6.12284 17.7778 6.80065 18.6131 6.80065C19.4484 6.80065 20.1262 6.12284 20.1262 5.28753C20.1262 4.45222 19.4484 3.7744 18.6131 3.7744C17.7778 3.7744 17.1 4.45503 17.1 5.28753Z" fill="#E2A610"/>
<path id="Vector_2" d="M21.7237 3.45386C21.7237 3.45386 21.8841 4.09229 21.1444 4.44104C20.4047 4.78698 19.9153 4.53105 19.9153 4.53105C20.0475 4.75605 20.1262 5.01198 20.1262 5.29042C20.1262 6.12573 19.4484 6.80355 18.6131 6.80355C17.7778 6.80355 17.1 6.12573 17.1 5.29042C17.1 5.20604 17.1197 4.88823 17.2547 4.62386C16.0003 5.22011 15.0469 4.71105 15.0469 4.71105C15.0159 4.89948 14.9962 5.09354 14.9962 5.29042C14.9962 7.28448 16.6191 8.90729 18.6131 8.90729C20.6072 8.90729 22.23 7.28448 22.23 5.28761C22.23 4.61823 22.0444 3.99104 21.7237 3.45386Z" fill="#9E740B"/>
<path id="Vector_3" d="M2.94189 27.5063C4.84595 25.636 6.03283 25.006 6.51658 22.2948C7.00033 19.5835 6.6122 13.8713 8.74408 10.1307C10.6903 6.7051 14.2622 5.2876 17.7469 5.2876C17.8313 5.2876 17.9156 5.29322 18 5.29322C18.0844 5.29041 18.1688 5.2876 18.2531 5.2876C21.7378 5.2876 25.3097 6.7051 27.256 10.1279C29.385 13.8713 28.9997 19.5835 29.4835 22.292C29.9672 25.0032 31.1541 25.6332 33.0581 27.5035C33.8794 28.3107 34.8722 29.596 34.875 30.4229C34.8778 31.2498 34.456 31.5507 33.4519 31.9726C30.6113 33.1679 26.8144 34.3267 18 34.3267C9.18564 34.3267 5.38876 33.1679 2.54814 31.9726C1.54408 31.5507 1.1222 31.2526 1.12501 30.4229C1.12783 29.5988 2.12064 28.3135 2.94189 27.5063Z" fill="#FFCA28"/>
<path id="Vector_4" d="M31.9781 30.4819C31.9781 29.236 25.7203 28.2263 18 28.2263C10.2797 28.2263 4.02188 29.236 4.02188 30.4819C4.02188 31.7279 10.2797 33.2157 18 33.2157C25.7203 33.2157 31.9781 31.7279 31.9781 30.4819Z" fill="#4E342E"/>
<path id="Vector_5" d="M26.3925 12.5973C26.4965 12.9938 26.5837 13.3904 26.654 13.7785C27.0112 15.7641 26.9465 17.8004 27.1069 19.8113C27.3234 22.5029 27.8016 23.9204 28.89 25.186C29.0334 25.3519 28.8872 25.6079 28.6706 25.5741C27.2166 25.3519 26.0494 25.1298 24.719 24.2523C22.7334 22.9445 22.2441 20.4835 22.23 18.2729C22.2075 14.9823 22.2694 11.7957 22.0078 10.5863C21.645 8.90164 21.3075 8.00445 20.7562 7.18601C19.9153 5.93726 23.1806 7.66976 23.6925 8.05508C25.1184 9.13226 25.9369 10.8648 26.3925 12.5973Z" fill="#E2A610"/>
<path id="Vector_6" d="M8.68782 16.965C8.65407 14.8332 8.67095 12.6282 9.52032 10.6707C10.0294 9.50066 10.8928 8.44597 11.9953 7.79066C12.8616 7.27597 14.6222 6.70785 15.255 7.87503C15.3816 8.10847 15.4322 8.38128 15.4406 8.64847C15.4631 9.57941 14.9794 10.44 14.5097 11.2444C13.1203 13.6294 12.5663 16.2366 11.8322 18.8803C11.5313 19.9716 11.1488 21.06 10.4934 21.9825C10.0434 22.6153 7.53751 24.8653 8.11126 22.8319C8.66251 20.866 8.71876 19.0125 8.68782 16.965Z" fill="#FFF59D"/>
<path id="Vector_7" d="M20.5566 30.043C20.5538 29.5593 20.2922 29.2809 19.6903 29.0727C18.4416 28.6424 16.8778 28.7212 15.9666 29.2105C15.0103 29.7224 15.6741 32.5602 18 32.5602C20.3259 32.5602 20.5594 30.4115 20.5566 30.043Z" fill="#E2A610"/>
<path id="Vector_8" d="M9.35155 25.8159C6.88218 26.249 5.09343 27.1856 4.31999 27.9449C3.70687 28.544 3.70687 29.0165 4.78687 28.5243C5.59968 28.1531 8.20405 27.3993 10.485 27.1715C14.4028 26.7778 16.8216 26.7693 17.2237 26.7778C18.1659 26.7974 18.2447 26.0718 16.3406 25.8159C14.4366 25.5628 11.8209 25.3856 9.35155 25.8159ZM17.0044 32.0118C17.3306 32.2368 17.7637 32.3465 18.1294 32.1946C18.495 32.0428 18.7312 31.5787 18.5512 31.2271C18.4809 31.0893 18.36 30.9853 18.2391 30.8896C17.9044 30.6281 17.5331 30.4143 17.1394 30.2568C16.9847 30.1949 16.8216 30.1387 16.6528 30.1499C16.4869 30.1584 16.3125 30.2456 16.2478 30.4003C15.9694 31.0331 16.5262 31.6856 17.0044 32.0118Z" fill="#FFF59D"/>
</g>
</svg>
