<svg width="12" height="12" viewBox="0 0 12 12" fill="none" xmlns="http://www.w3.org/2000/svg">
<path id="Vector" d="M9.35536 0.000156611C9.21443 -0.00227604 9.07445 0.0236533 8.94374 0.0764022C8.81303 0.129151 8.69428 0.207642 8.59453 0.307205L8.12632 0.789778L11.2132 3.89069L11.6814 3.40859C11.7824 3.30777 11.8625 3.18804 11.9172 3.05625C11.9719 2.92445 12 2.78317 12 2.6405C12 2.49782 11.9719 2.35654 11.9172 2.22474C11.8625 2.09295 11.7824 1.97322 11.6814 1.87241L10.1307 0.321715C9.92464 0.116742 9.64606 0.00120932 9.35536 0.000156611ZM7.59959 1.21431L6.86778 1.9164L10.0867 5.13433L10.833 4.44675L7.59959 1.21431ZM6.39911 2.42846L1.3378 7.44469C1.28029 7.47411 1.22969 7.5154 1.18934 7.56583C1.14898 7.61626 1.11979 7.67468 1.1037 7.73722L0.0202665 11.4092C-0.00419575 11.4885 -0.00655984 11.573 0.0134287 11.6535C0.0334172 11.7341 0.0750014 11.8076 0.133706 11.8663C0.192411 11.925 0.266013 11.9666 0.346592 11.9866C0.427171 12.0066 0.511675 12.0042 0.59101 11.9797L4.26362 10.8971C4.34699 10.8847 4.42528 10.8494 4.48982 10.7952C4.55436 10.741 4.60264 10.67 4.62929 10.5901L9.6185 5.64592L8.93117 4.95881L3.80993 10.093L1.74701 10.6921L1.30783 10.2535L1.9371 8.10372L7.01433 3.04256L6.39911 2.42799V2.42846ZM7.5111 3.55462L2.37581 8.7033L3.12167 8.86385L3.2242 9.5519L8.37447 4.41726L7.5111 3.55462Z" fill="black"/>
</svg>
