<svg width="33" height="36" viewBox="0 0 33 36" fill="none" xmlns="http://www.w3.org/2000/svg">
<g id="wpf:wedding-cake" clip-path="url(#clip0_220_1837)">
<path id="Vector" d="M13.7635 0.130127C11.7163 0.130127 10.2732 1.71136 10.2732 3.93782C10.2732 6.38859 12.0475 7.98228 13.7635 9.5192C14.3245 10.0218 14.8728 10.5272 15.3894 11.0769H6.34615C4.67585 11.0769 3.28858 12.2552 2.77581 13.889C2.77581 13.889 3.03473 16.6154 6.98077 16.6154C10.6488 16.6154 10.7847 14.58 10.7885 14.4955C10.797 14.3188 10.8678 14.1526 10.986 14.0316C11.1043 13.9105 11.2609 13.8441 11.4231 13.8461C11.5897 13.852 11.748 13.9268 11.8658 14.0554C11.9837 14.184 12.0523 14.3567 12.0577 14.5384C12.0628 14.609 12.2417 16.6154 16.5 16.6154C20.7583 16.6154 20.936 14.58 20.9423 14.4955C20.9562 14.3134 21.0341 14.1441 21.1597 14.0231C21.2853 13.9021 21.4489 13.8387 21.6163 13.8461C21.7788 13.8537 21.9321 13.9304 22.0434 14.0598C22.1546 14.1892 22.215 14.361 22.2115 14.5384C22.2141 14.6118 22.3258 16.6154 26.0192 16.6154C30.0846 16.6154 30.2242 13.889 30.2242 13.889C29.7114 12.2566 28.3216 11.0769 26.6538 11.0769H17.6106C18.1316 10.5323 18.6741 10.0125 19.2365 9.5192C20.9512 7.98228 22.7268 6.3872 22.7268 3.93782C22.7268 1.71136 21.285 0.130127 19.2365 0.130127C18.0561 0.130127 17.0572 1.05228 16.5 1.68782C15.9453 1.0509 14.9427 0.130127 13.7635 0.130127ZM11.4612 16.2263C10.8418 17.1069 9.57254 18 6.98077 18C4.43596 18 3.17181 17.1346 2.53846 16.2692V22.1538H30.4615V16.2692C29.8282 17.1277 28.5602 18 26.0192 18C23.4173 18 22.1557 17.1041 21.5376 16.2263C20.8344 17.1027 19.4002 18 16.5 18C13.5897 18 12.1618 17.1069 11.4624 16.2263H11.4612ZM3.80769 23.5384C2.13738 23.5384 0.750115 24.7167 0.237346 26.3506C0.238615 26.3506 0.496269 29.0769 4.44231 29.0769C8.11038 29.0769 9.51542 27.0415 9.51923 26.957C9.52774 26.7804 9.59854 26.6141 9.71681 26.4931C9.83509 26.3721 9.99169 26.3056 10.1538 26.3077C10.3204 26.3135 10.4787 26.3884 10.5966 26.517C10.7145 26.6455 10.7831 26.8182 10.7885 27C10.7935 27.0706 12.2417 29.0769 16.5 29.0769C20.7583 29.0769 22.2052 27.0415 22.2115 26.957C22.2255 26.7749 22.3034 26.6057 22.4289 26.4847C22.5545 26.3637 22.7181 26.3002 22.8855 26.3077C23.048 26.3152 23.2013 26.3919 23.3126 26.5213C23.4239 26.6508 23.4842 26.8226 23.4808 27C23.4833 27.0734 24.8642 29.0769 28.5577 29.0769C32.623 29.0769 32.7627 26.3506 32.7627 26.3506C32.2499 24.7181 30.8601 23.5384 29.1923 23.5384H3.80769ZM10.1932 28.6878C9.57254 29.5684 7.03408 30.4615 4.44231 30.4615C1.8975 30.4615 0.633346 29.5961 0 28.7307V33.2307C0 35.5237 1.70585 36 3.80769 36H29.1923C31.2942 36 33 35.5237 33 33.2307V28.7307C32.3667 29.5892 31.0987 30.4615 28.5577 30.4615C25.9558 30.4615 23.4249 29.5657 22.8068 28.6878C22.1037 29.5643 19.4002 30.4615 16.5 30.4615C13.5897 30.4615 10.8925 29.5684 10.1932 28.6878Z" fill="#F24E1E"/>
</g>
<defs>
<clipPath id="clip0_220_1837">
<rect width="33" height="36" fill="white"/>
</clipPath>
</defs>
</svg>
