<svg width="45" height="45" viewBox="0 0 45 45" fill="none" xmlns="http://www.w3.org/2000/svg">
<g id="noto:dollar-banknote">
<path id="Vector" d="M42.0645 35.8909H2.93555C2.0918 35.8909 1.40625 35.2054 1.40625 34.3616V10.6452C1.40625 9.79795 2.0918 9.10889 2.94258 9.10889H42.0609C42.9082 9.10889 43.5973 9.79443 43.5973 10.6452V34.3616C43.5956 34.7673 43.4335 35.1559 43.1463 35.4424C42.8591 35.7289 42.4701 35.8902 42.0645 35.8909Z" fill="#2E7D32"/>
<path id="Vector_2" d="M42.1102 31.6089H2.88984C2.69502 31.6089 2.50209 31.5705 2.3221 31.496C2.1421 31.4214 1.97855 31.3121 1.84078 31.1744C1.56256 30.8961 1.40625 30.5188 1.40625 30.1253V10.6452C1.40625 9.79795 2.0918 9.10889 2.94258 9.10889H42.0609C42.9082 9.10889 43.5973 9.79443 43.5973 10.6452V30.1253C43.5958 30.5189 43.4385 30.8959 43.1598 31.174C42.8812 31.452 42.5038 31.6083 42.1102 31.6089Z" fill="#66BB6A"/>
<path id="Vector_3" d="M13.95 22.9816C13.95 22.5492 13.7988 22.1835 13.4965 21.8882C13.1941 21.5929 12.6809 21.3222 11.9602 21.0832C10.9582 20.7773 10.227 20.38 9.76993 19.8878C9.30938 19.3957 9.08086 18.7699 9.08086 18.014C9.08086 17.2406 9.30586 16.6078 9.75586 16.1156C10.2059 15.6199 10.8246 15.3281 11.6086 15.2332V14.0132C11.6086 13.8339 11.7563 13.6863 11.9356 13.6863H12.3328C12.5121 13.6863 12.6598 13.8339 12.6598 14.0132V15.2402C13.4508 15.3492 14.066 15.6796 14.5055 16.2351C14.8992 16.7343 15.1172 17.3953 15.1594 18.2214C15.1664 18.3832 15.0328 18.5167 14.8711 18.5167H14.1434C13.9887 18.5167 13.8691 18.3937 13.8551 18.239C13.8164 17.7011 13.6617 17.2652 13.391 16.9312C13.0746 16.541 12.6492 16.3441 12.1148 16.3441C11.5559 16.3441 11.127 16.4882 10.8316 16.78C10.5363 17.0683 10.3852 17.4761 10.3852 17.9929C10.3852 18.4746 10.5434 18.8578 10.8563 19.1425C11.1691 19.4273 11.6859 19.6875 12.4031 19.9195C13.1203 20.1515 13.6793 20.4082 14.0836 20.6894C14.4844 20.9707 14.7832 21.2941 14.9731 21.6667C15.1629 22.0394 15.2578 22.4753 15.2578 22.9746C15.2578 23.7691 15.0188 24.4089 14.5406 24.8941C14.0625 25.3792 13.3945 25.6675 12.5332 25.7554V26.775C12.5332 26.9542 12.3856 27.1019 12.2063 27.1019H11.8125C11.6332 27.1019 11.4855 26.9542 11.4855 26.775V25.7554C10.6102 25.6746 9.92461 25.3652 9.42891 24.8203C8.98594 24.3351 8.73985 23.6953 8.69414 22.9042C8.6836 22.7425 8.82071 22.6089 8.98242 22.6089H9.71719C9.86485 22.6089 9.99141 22.7179 10.002 22.8656C10.0406 23.3964 10.2094 23.8148 10.5082 24.1207C10.8527 24.4722 11.3379 24.6515 11.9707 24.6515C12.5859 24.6515 13.0711 24.5039 13.4262 24.205C13.7742 23.8992 13.95 23.4949 13.95 22.9816Z" fill="white"/>
<path id="Vector_4" d="M12.5297 26.0472L11.4855 25.7483L11.6051 15.2647V14.9097L12.6563 15.2366L12.5297 25.7413V26.0472Z" fill="white"/>
<path id="Vector_5" opacity="0.5" d="M29.8055 26.8628C33.3975 26.8628 36.3094 23.9509 36.3094 20.3589C36.3094 16.7669 33.3975 13.855 29.8055 13.855C26.2135 13.855 23.3016 16.7669 23.3016 20.3589C23.3016 23.9509 26.2135 26.8628 29.8055 26.8628Z" fill="#2E7D32"/>
<path id="Vector_6" d="M37.4238 11.6367C37.7262 13.5352 39.2309 15.0398 41.1293 15.3422V25.3758C39.2309 25.6781 37.7262 27.1828 37.4238 29.0812H7.53046C7.14374 27.2848 5.68124 25.8996 3.86718 25.6113V15.5777C5.84648 15.2648 7.39335 13.6477 7.60429 11.6367H37.4238ZM38.0707 10.9336H6.92226C6.92578 11.0109 6.92929 11.0883 6.92929 11.1691C6.92929 13.2469 5.24531 14.9309 3.16757 14.9309V26.2617C5.16445 26.2617 6.79921 27.8191 6.92226 29.7879H38.0742C38.0742 27.7102 39.7582 26.0262 41.8359 26.0262V14.6953C39.7547 14.6953 38.0707 13.0113 38.0707 10.9336Z" fill="#2E7D32"/>
<path id="Vector_7" d="M18.6328 9.10889H26.3707V35.8909H18.6328V9.10889Z" fill="#FFECB3"/>
<path id="Vector_8" d="M18.6328 31.6089H26.3707V35.8909H18.6328V31.6089Z" fill="#FFC06C"/>
</g>
</svg>
