<svg width="17" height="17" viewBox="3 3 14 14" fill="none" xmlns="http://www.w3.org/2000/svg">
<g id="la:trash">
<path id="Vector" d="M8.90909 4C8.62382 4 8.33145 4.092 8.12473 4.2815C7.91855 4.47 7.81818 4.738 7.81818 5V5.5H4V6.5H4.59673L5.63636 15.547L5.68764 16H14.3124L14.3636 15.547L15.4033 6.5H16V5.5H12.1818V5C12.1818 4.7385 12.0815 4.4705 11.8747 4.281C11.6691 4.092 11.3762 4 11.0909 4H8.90909ZM8.90909 5H11.0909V5.5H8.90909V5ZM5.70455 6.5H14.2955L13.324 15H6.676L5.70455 6.5ZM7.81818 8V13.5H8.90909V8H7.81818ZM9.45455 8V13.5H10.5455V8H9.45455ZM11.0909 8V13.5H12.1818V8H11.0909Z" fill="black"/>
</g>
</svg>
