<svg width="34" height="38" viewBox="0 0 34 38" fill="none" xmlns="http://www.w3.org/2000/svg">
<path id="Vector" d="M27.5891 36.4754C25.4568 38.4807 23.1287 38.1641 20.8877 37.2142C18.5161 36.2432 16.3404 36.201 13.8382 37.2142C10.7051 38.5229 9.05155 38.143 7.18039 36.4754C-3.43735 25.8578 -1.8708 9.68878 10.1829 9.09774C13.1202 9.2455 15.1654 10.6598 16.8843 10.7864C19.4517 10.2798 21.9103 8.82333 24.6518 9.01331C27.9372 9.26661 30.4176 10.5331 32.0494 12.8128C25.261 16.7601 26.8711 25.4357 33.0938 27.8631C31.8536 31.0294 30.2435 34.1746 27.5673 36.4965L27.5891 36.4754ZM16.6667 8.97109C16.3404 4.26391 20.2785 0.379952 24.8041 0C25.4351 5.44598 19.7128 9.4988 16.6667 8.97109Z" fill="black"/>
</svg>
