<svg width="17" height="16" viewBox="0 0 17 16" fill="none" xmlns="http://www.w3.org/2000/svg">
<path d="M0.09375 8C0.09375 5.87827 0.936605 3.84344 2.4369 2.34315C3.93719 0.842855 5.97202 0 8.09375 0C9.14433 0 10.1846 0.206926 11.1552 0.608964C12.1258 1.011 13.0077 1.60028 13.7506 2.34315C14.4935 3.08601 15.0827 3.96793 15.4848 4.93853C15.8868 5.90914 16.0938 6.94943 16.0938 8C16.0938 10.1217 15.2509 12.1566 13.7506 13.6569C12.2503 15.1571 10.2155 16 8.09375 16C7.04318 16 6.00289 15.7931 5.03228 15.391C4.06168 14.989 3.17976 14.3997 2.4369 13.6569C0.936605 12.1566 0.09375 10.1217 0.09375 8ZM12.8938 7.2H6.49375L9.29375 4.4L8.15775 3.264L3.42175 8L8.15775 12.736L9.29375 11.6L6.49375 8.8H12.8938V7.2Z" fill="white"/>
</svg>
