<svg width="45" height="44" viewBox="0 0 45 44" fill="none" xmlns="http://www.w3.org/2000/svg">
<g id="flat-color-icons:google">
<path id="Vector" d="M40.0705 18.4094H38.5937V18.3333H22.0937V25.6667H32.4548C30.9432 29.9356 26.8815 33 22.0937 33C16.019 33 11.0937 28.0747 11.0937 22C11.0937 15.9252 16.019 11 22.0937 11C24.8978 11 27.4489 12.0578 29.3913 13.7857L34.5769 8.60016C31.3025 5.54857 26.9227 3.66666 22.0937 3.66666C11.9691 3.66666 3.76038 11.8754 3.76038 22C3.76038 32.1246 11.9691 40.3333 22.0937 40.3333C32.2183 40.3333 40.427 32.1246 40.427 22C40.427 20.7707 40.3005 19.5708 40.0705 18.4094Z" fill="#FFC107"/>
<path id="Vector_2" d="M5.87427 13.4667L11.8977 17.8842C13.5275 13.849 17.4747 11 22.0938 11C24.8979 11 27.4489 12.0578 29.3914 13.7857L34.5769 8.60016C31.3026 5.54857 26.9228 3.66666 22.0938 3.66666C15.0519 3.66666 8.9451 7.64224 5.87427 13.4667Z" fill="#FF3D00"/>
<path id="Vector_3" d="M22.0937 40.3333C26.8292 40.3333 31.132 38.5211 34.3853 35.574L28.7111 30.7725C26.8086 32.2193 24.4839 33.0019 22.0937 33C17.3252 33 13.2763 29.9594 11.751 25.7162L5.77246 30.3224C8.80663 36.2597 14.9685 40.3333 22.0937 40.3333Z" fill="#4CAF50"/>
<path id="Vector_4" d="M40.0705 18.4094H38.5938V18.3333H22.0938V25.6667H32.4548C31.7318 27.6984 30.4293 29.4738 28.7084 30.7734L28.7112 30.7716L34.3853 35.5731C33.9838 35.9379 40.4271 31.1667 40.4271 22C40.4271 20.7708 40.3006 19.5708 40.0705 18.4094Z" fill="#1976D2"/>
</g>
</svg>
