<svg width="20" height="19" viewBox="0 0 20 19" fill="none" xmlns="http://www.w3.org/2000/svg">
<path d="M10.5386 13.3636C10.7653 13.3636 10.9571 13.2853 11.1138 13.1285C11.2706 12.9718 11.3487 12.7802 11.3483 12.554C11.3483 12.3273 11.2701 12.1355 11.1138 11.9788C10.9575 11.822 10.7658 11.7439 10.5386 11.7443C10.3119 11.7443 10.1204 11.8227 9.9641 11.9794C9.80778 12.1362 9.72941 12.3277 9.72898 12.554C9.72898 12.7807 9.80735 12.9724 9.9641 13.1292C10.1209 13.2859 10.3124 13.3641 10.5386 13.3636ZM10.571 15.9545C9.675 15.9545 8.83295 15.7844 8.04489 15.4441C7.25682 15.1039 6.57131 14.6425 5.98835 14.0599C5.4054 13.477 4.944 12.7915 4.60416 12.0034C4.26432 11.2153 4.09418 10.3733 4.09375 9.47727C4.09375 8.58125 4.26389 7.7392 4.60416 6.95114C4.94443 6.16307 5.40583 5.47756 5.98835 4.8946C6.57131 4.31165 7.25682 3.85025 8.04489 3.51041C8.83295 3.17057 9.675 3.00043 10.571 3C11.467 3 12.3091 3.17014 13.0972 3.51041C13.8852 3.85068 14.5707 4.31208 15.1537 4.8946C15.7366 5.47756 16.1983 6.16307 16.5385 6.95114C16.8788 7.7392 17.0487 8.58125 17.0483 9.47727C17.0483 10.3733 16.8782 11.2153 16.5379 12.0034C16.1976 12.7915 15.7362 13.477 15.1537 14.0599C14.5707 14.6429 13.8852 15.1045 13.0972 15.4448C12.3091 15.7851 11.467 15.955 10.571 15.9545ZM10.6358 6.69205C10.9057 6.69205 11.1406 6.77841 11.3405 6.95114C11.5405 7.12386 11.6402 7.33977 11.6398 7.59886C11.6398 7.83636 11.567 8.04687 11.4215 8.2304C11.276 8.41392 11.1112 8.58665 10.9273 8.74858C10.679 8.96449 10.4605 9.20199 10.2718 9.46108C10.0831 9.72017 9.9885 10.0116 9.98807 10.3355C9.98807 10.4866 10.0449 10.6136 10.1584 10.7164C10.272 10.8191 10.4041 10.8703 10.5548 10.8699C10.7168 10.8699 10.8545 10.8159 10.9681 10.708C11.0816 10.6 11.1544 10.4651 11.1864 10.3031C11.2295 10.0764 11.3267 9.8739 11.4778 9.69556C11.629 9.51722 11.7909 9.3473 11.9636 9.1858C12.2119 8.9483 12.4253 8.6892 12.6036 8.40852C12.7819 8.12784 12.8709 7.81477 12.8705 7.46932C12.8705 6.91875 12.6463 6.46815 12.1981 6.11751C11.7499 5.76688 11.2291 5.59134 10.6358 5.59091C10.2256 5.59091 9.83434 5.67727 9.46211 5.85C9.08989 6.02273 8.8064 6.28722 8.61165 6.64347C8.53608 6.77301 8.51168 6.91076 8.53846 7.05672C8.56523 7.20267 8.6382 7.31322 8.75739 7.38835C8.90852 7.47472 9.06506 7.5017 9.22699 7.46932C9.38892 7.43693 9.52386 7.34517 9.63182 7.19403C9.75057 7.0321 9.89911 6.90795 10.0775 6.82159C10.2558 6.73523 10.4419 6.69205 10.6358 6.69205Z" fill="#FEFEFE"/>
</svg>
