<svg width="24" height="30" viewBox="0 0 24 30" fill="none" xmlns="http://www.w3.org/2000/svg">
<g id="Group">
<path id="Vector" d="M21.1971 14.6751L21.182 14.6827C20.6357 14.9577 19.1262 15.7176 17.3827 15.6245C16.5376 15.5795 15.6614 15.3423 14.8226 14.8384L13.7495 17.0493C14.1206 17.5285 14.4939 18.0059 14.8695 18.4816L14.8707 18.4831L15.0324 18.6887C15.0325 18.6889 15.0326 18.689 15.0327 18.6891C15.2409 18.9536 15.4304 19.1944 15.5763 19.3844L15.5808 19.3899C15.7299 19.5762 15.8685 19.7707 15.996 19.9724C16.004 19.9851 16.0118 19.998 16.0192 20.0111C16.1915 20.3131 16.287 20.6364 16.3215 20.7533C16.3233 20.7595 16.3249 20.7651 16.3264 20.77L16.3299 20.7818L16.3299 20.7818C16.3843 20.9733 16.4336 21.1661 16.4777 21.3601L16.4779 21.3608C16.5809 21.8152 16.6768 22.2711 16.7655 22.7284C16.8222 23.0174 16.8786 23.3092 16.933 23.5909C16.944 23.648 16.955 23.7047 16.9658 23.7609L16.966 23.7619C17.0873 24.3933 17.1959 24.9519 17.279 25.3293L21.1971 14.6751ZM21.1971 14.6751L21.3364 14.607C21.8926 14.3424 22.3217 13.8685 22.53 13.2886L21.5889 12.9506L22.53 13.2886C22.7392 12.7062 22.7084 12.0645 22.4445 11.5048C22.1805 10.9451 21.7051 10.5131 21.1226 10.3039C20.5402 10.0948 19.8985 10.1255 19.3388 10.3895L19.3388 10.3895L19.3333 10.3921L19.1106 10.4988L19.1077 10.5002C18.4785 10.8041 18.0537 10.9866 17.6319 10.9648C17.5444 10.9598 17.4636 10.9445 17.382 10.9141C17.3001 10.8836 17.1983 10.8309 17.0762 10.733L21.1971 14.6751ZM7.51777 14.0723C7.45706 14.1633 7.39689 14.2521 7.33913 14.3336L7.3326 14.3428L7.33255 14.3428C6.9724 14.8389 6.43149 15.1733 5.82673 15.2738C5.22198 15.3743 4.60198 15.2327 4.10077 14.8797C3.59955 14.5267 3.25739 13.9906 3.14826 13.3874C3.03912 12.7841 3.17178 12.1622 3.51755 11.6559L3.52813 11.6408C3.5507 11.609 3.58891 11.5513 3.65618 11.4486L3.65843 11.4452L3.65843 11.4452L3.66778 11.431C3.98581 10.9499 4.6626 9.92598 5.57769 8.97301L7.51777 14.0723ZM7.51777 14.0723C7.45728 14.2496 7.41324 14.3837 7.39132 14.4595L7.39039 14.4628C7.29125 14.8101 7.26958 15.1749 7.3269 15.5314C7.36084 15.75 7.41806 15.9281 7.45841 16.0408M7.51777 14.0723L11.9313 22.4125C11.9166 22.3495 11.9035 22.2948 11.8918 22.2479C11.8914 22.2474 11.891 22.2468 11.8906 22.2463L11.8877 22.2426L11.8877 22.2426C11.7594 22.0756 11.5825 21.8503 11.366 21.5757L11.3647 21.5741L11.2049 21.3705L11.2041 21.3694L11.1955 21.3586C10.7957 20.8507 10.3077 20.2308 9.82767 19.6074L9.82721 19.6068C9.28217 18.8979 8.72 18.1497 8.29683 17.5315C8.09083 17.2311 7.88166 16.9097 7.72094 16.6138C7.6416 16.4693 7.53958 16.268 7.45841 16.0408M7.45841 16.0408C7.45835 16.0406 7.45829 16.0405 7.45823 16.0403L8.39998 15.704L7.45859 16.0413C7.45853 16.0411 7.45847 16.041 7.45841 16.0408ZM13.688 6.58014C12.6551 6.08719 11.5966 6.08568 10.7574 6.18561L17.0761 10.7329C16.8187 10.5261 16.4067 10.0659 15.9707 9.06518L15.9707 9.06503C15.5095 8.00705 14.7811 7.10196 13.6881 6.58019L13.688 6.58014ZM11.9313 22.4126C12.0052 22.7303 12.0918 23.1521 12.1863 23.6304L12.1866 23.6319C12.2471 23.936 12.3099 24.2616 12.3717 24.5855L12.3721 24.5877L12.3852 24.6551C12.5063 25.2816 12.6273 25.9082 12.7222 26.3373L12.7222 26.3373C12.7884 26.6365 12.9129 26.9197 13.0885 27.1708C13.2642 27.4219 13.4876 27.636 13.7459 27.8007C14.0043 27.9655 14.2926 28.0778 14.5944 28.1311C14.8961 28.1845 15.2054 28.1779 15.5046 28.1117C15.8038 28.0455 16.0871 27.921 16.3382 27.7454L15.765 26.926L16.3382 27.7454C16.5893 27.5698 16.8033 27.3464 16.9681 27.088C17.1328 26.8296 17.2451 26.5413 17.2985 26.2396C17.3518 25.9381 17.3452 25.6291 17.2792 25.3301L11.9313 22.4126ZM10.738 21.3866C10.738 21.177 10.6721 20.9727 10.5496 20.8025L8.6463 18.1578C8.42831 17.8549 8.05979 17.6986 7.69051 17.7524C7.32122 17.8062 7.01261 18.0611 6.89008 18.4136L6.63935 19.1349L4.20076 18.5618L4.20072 18.5618C3.59829 18.4203 2.96429 18.5238 2.43821 18.8497C1.91212 19.1756 1.53705 19.6971 1.39549 20.2996C1.25393 20.902 1.35749 21.536 1.68338 22.0621C2.00926 22.5881 2.53079 22.9632 3.13322 23.1048C3.13322 23.1048 3.13323 23.1048 3.13323 23.1048L7.61855 24.1588L7.6188 24.1588C8.18035 24.2906 8.77082 24.2098 9.27627 23.9319C9.7816 23.654 10.1661 23.1988 10.3557 22.6542C10.3557 22.6541 10.3558 22.654 10.3558 22.6538L10.6823 21.7162C10.7192 21.6104 10.738 21.4993 10.738 21.3873V21.3866ZM10.757 6.18565C8.42086 6.46317 6.6934 7.81013 5.57804 8.97264L10.757 6.18565Z" stroke="white" stroke-width="2" stroke-linecap="round" stroke-linejoin="round"/>
<path id="Vector_2" d="M18.5714 5.73752C18.2432 6.06571 17.7981 6.25008 17.3339 6.25008C16.8698 6.25008 16.4247 6.06571 16.0965 5.73752C15.7683 5.40933 15.5839 4.96421 15.5839 4.50008C15.5839 4.03595 15.7683 3.59083 16.0965 3.26264C16.4247 2.93446 16.8698 2.75008 17.3339 2.75008C17.7981 2.75008 18.2432 2.93446 18.5714 3.26264C18.8996 3.59083 19.0839 4.03595 19.0839 4.50008C19.0839 4.96421 18.8996 5.40933 18.5714 5.73752ZM17.3339 8.08341C18.2843 8.08341 19.1957 7.70589 19.8677 7.03388C20.5397 6.36187 20.9173 5.45044 20.9173 4.50008C20.9173 3.54972 20.5397 2.63829 19.8677 1.96628C19.1957 1.29428 18.2843 0.916748 17.3339 0.916748C16.3836 0.916748 15.4721 1.29428 14.8001 1.96628C14.1281 2.63829 13.7506 3.54972 13.7506 4.50008C13.7506 5.45044 14.1281 6.36188 14.8001 7.03388C15.4721 7.70589 16.3836 8.08341 17.3339 8.08341Z" fill="white" stroke="white" stroke-width="0.5"/>
</g>
</svg>
