<svg width="32" height="32" viewBox="0 0 32 32" fill="none" xmlns="http://www.w3.org/2000/svg">
<g id="ic:outline-shopping-cart">
<path id="Vector" d="M20.7334 17.3334C21.7334 17.3334 22.6134 16.7867 23.0667 15.9601L27.84 7.30675C27.9524 7.10465 28.0101 6.87671 28.0073 6.64549C28.0045 6.41427 27.9414 6.18778 27.8242 5.98843C27.707 5.78908 27.5398 5.62379 27.3392 5.50891C27.1385 5.39402 26.9113 5.33353 26.68 5.33341H6.94671L5.69337 2.66675H1.33337V5.33341H4.00004L8.80004 15.4534L7.00004 18.7067C6.02671 20.4934 7.30671 22.6667 9.33337 22.6667H25.3334V20.0001H9.33337L10.8 17.3334H20.7334ZM8.21337 8.00008H24.4134L20.7334 14.6667H11.3734L8.21337 8.00008ZM9.33337 24.0001C7.86671 24.0001 6.68004 25.2001 6.68004 26.6667C6.68004 28.1334 7.86671 29.3334 9.33337 29.3334C10.8 29.3334 12 28.1334 12 26.6667C12 25.2001 10.8 24.0001 9.33337 24.0001ZM22.6667 24.0001C21.2 24.0001 20.0134 25.2001 20.0134 26.6667C20.0134 28.1334 21.2 29.3334 22.6667 29.3334C24.1334 29.3334 25.3334 28.1334 25.3334 26.6667C25.3334 25.2001 24.1334 24.0001 22.6667 24.0001Z" fill="white"/>
</g>
</svg>
