<svg width="32" height="33" viewBox="0 0 32 33" fill="none" xmlns="http://www.w3.org/2000/svg">
<g id="ic:outline-menu-book">
<path id="Vector" d="M28 7.16667C26.52 6.7 24.8934 6.5 23.3334 6.5C20.7334 6.5 17.9334 7.03333 16 8.5C14.0667 7.03333 11.2667 6.5 8.66671 6.5C6.06671 6.5 3.26671 7.03333 1.33337 8.5V28.0333C1.33337 28.3667 1.66671 28.7 2.00004 28.7C2.13337 28.7 2.20004 28.6333 2.33337 28.6333C4.13337 27.7667 6.73337 27.1667 8.66671 27.1667C11.2667 27.1667 14.0667 27.7 16 29.1667C17.8 28.0333 21.0667 27.1667 23.3334 27.1667C25.5334 27.1667 27.8 27.5667 29.6667 28.5667C29.8 28.6333 29.8667 28.6333 30 28.6333C30.3334 28.6333 30.6667 28.3 30.6667 27.9667V8.5C29.8667 7.9 29 7.5 28 7.16667ZM28 25.1667C26.5334 24.7 24.9334 24.5 23.3334 24.5C21.0667 24.5 17.8 25.3667 16 26.5V11.1667C17.8 10.0333 21.0667 9.16667 23.3334 9.16667C24.9334 9.16667 26.5334 9.36667 28 9.83333V25.1667Z" fill="white"/>
<path id="Vector_2" d="M23.3334 14.5C24.5067 14.5 25.64 14.62 26.6667 14.8467V12.82C25.6134 12.62 24.48 12.5 23.3334 12.5C21.0667 12.5 19.0134 12.8867 17.3334 13.6067V15.82C18.84 14.9667 20.9334 14.5 23.3334 14.5ZM17.3334 17.1533V19.3667C18.84 18.5133 20.9334 18.0467 23.3334 18.0467C24.5067 18.0467 25.64 18.1667 26.6667 18.3933V16.3667C25.6134 16.1667 24.48 16.0467 23.3334 16.0467C21.0667 16.0467 19.0134 16.4467 17.3334 17.1533ZM23.3334 19.6067C21.0667 19.6067 19.0134 19.9933 17.3334 20.7133V22.9267C18.84 22.0733 20.9334 21.6067 23.3334 21.6067C24.5067 21.6067 25.64 21.7267 26.6667 21.9533V19.9267C25.6134 19.7133 24.48 19.6067 23.3334 19.6067Z" fill="white"/>
</g>
</svg>
