<svg width="32" height="33" viewBox="0 0 32 33" fill="none" xmlns="http://www.w3.org/2000/svg">
<g id="ic:round-work-outline">
<path id="Vector" d="M18.6666 8.50008V5.83341H13.3333V8.50008H18.6666ZM5.33329 12.5001V24.5001C5.33329 25.2334 5.93329 25.8334 6.66663 25.8334H25.3333C26.0666 25.8334 26.6666 25.2334 26.6666 24.5001V12.5001C26.6666 11.7667 26.0666 11.1667 25.3333 11.1667H6.66663C5.93329 11.1667 5.33329 11.7667 5.33329 12.5001ZM26.6666 8.50008C28.1466 8.50008 29.3333 9.68675 29.3333 11.1667V25.8334C29.3333 27.3134 28.1466 28.5001 26.6666 28.5001H5.33329C3.85329 28.5001 2.66663 27.3134 2.66663 25.8334L2.67996 11.1667C2.67996 9.68675 3.85329 8.50008 5.33329 8.50008H10.6666V5.83341C10.6666 4.35341 11.8533 3.16675 13.3333 3.16675H18.6666C20.1466 3.16675 21.3333 4.35341 21.3333 5.83341V8.50008H26.6666Z" fill="white"/>
</g>
</svg>
