<svg width="32" height="33" viewBox="0 0 32 33" fill="none" xmlns="http://www.w3.org/2000/svg">
<g id="material-symbols:other-admission-outline">
<path id="Vector" d="M20.3333 25.5C20.6 25.5 20.8333 25.4 21.0333 25.2C21.2333 25 21.3333 24.7667 21.3333 24.5C21.3333 24.2333 21.2333 24 21.0333 23.8C20.8333 23.6 20.6 23.5 20.3333 23.5C20.0667 23.5 19.8333 23.6 19.6333 23.8C19.4333 24 19.3333 24.2333 19.3333 24.5C19.3333 24.7667 19.4333 25 19.6333 25.2C19.8333 25.4 20.0667 25.5 20.3333 25.5ZM24 25.5C24.2667 25.5 24.5 25.4 24.7 25.2C24.9 25 25 24.7667 25 24.5C25 24.2333 24.9 24 24.7 23.8C24.5 23.6 24.2667 23.5 24 23.5C23.7333 23.5 23.5 23.6 23.3 23.8C23.1 24 23 24.2333 23 24.5C23 24.7667 23.1 25 23.3 25.2C23.5 25.4 23.7333 25.5 24 25.5ZM27.6667 25.5C27.9333 25.5 28.1667 25.4 28.3667 25.2C28.5667 25 28.6667 24.7667 28.6667 24.5C28.6667 24.2333 28.5667 24 28.3667 23.8C28.1667 23.6 27.9333 23.5 27.6667 23.5C27.4 23.5 27.1667 23.6 26.9667 23.8C26.7667 24 26.6667 24.2333 26.6667 24.5C26.6667 24.7667 26.7667 25 26.9667 25.2C27.1667 25.4 27.4 25.5 27.6667 25.5ZM6.66667 28.5C5.93334 28.5 5.30534 28.2387 4.78267 27.716C4.26 27.1933 3.99911 26.5658 4 25.8333V7.16667C4 6.43334 4.26134 5.80534 4.784 5.28267C5.30667 4.76 5.93422 4.49911 6.66667 4.5H25.3333C26.0667 4.5 26.6947 4.76134 27.2173 5.284C27.74 5.80667 28.0009 6.43422 28 7.16667V16.1C27.5778 15.9 27.1444 15.7276 26.7 15.5827C26.2556 15.4378 25.8 15.3324 25.3333 15.2667V7.16667H6.66667V25.8333H14.7333C14.8 26.3222 14.9058 26.7889 15.0507 27.2333C15.1956 27.6778 15.3676 28.1 15.5667 28.5H6.66667ZM6.66667 24.5V25.8333V7.16667V15.2667V15.1667V24.5ZM9.33334 23.1667H14.7667C14.8333 22.7 14.9391 22.2444 15.084 21.8C15.2289 21.3556 15.3898 20.9222 15.5667 20.5H9.33334V23.1667ZM9.33334 17.8333H17.4667C18.1778 17.1667 18.9724 16.6111 19.8507 16.1667C20.7289 15.7222 21.6676 15.4222 22.6667 15.2667V15.1667H9.33334V17.8333ZM9.33334 12.5H22.6667V9.83334H9.33334V12.5ZM24 31.1667C22.1556 31.1667 20.5831 30.5164 19.2827 29.216C17.9822 27.9156 17.3324 26.3436 17.3333 24.5C17.3333 22.6556 17.9836 21.0831 19.284 19.7827C20.5844 18.4822 22.1564 17.8324 24 17.8333C25.8444 17.8333 27.4169 18.4836 28.7173 19.784C30.0178 21.0844 30.6676 22.6564 30.6667 24.5C30.6667 26.3444 30.0164 27.9169 28.716 29.2173C27.4156 30.5178 25.8436 31.1676 24 31.1667Z" fill="white"/>
</g>
</svg>
