<svg width="22" height="24" viewBox="0 0 22 24" fill="none" xmlns="http://www.w3.org/2000/svg">
<g id="material-symbols:patient-list">
<path id="Vector" d="M16 14C15.1667 14 14.4583 13.7083 13.875 13.125C13.2917 12.5417 13 11.8333 13 11C13 10.1667 13.2917 9.45833 13.875 8.875C14.4583 8.29167 15.1667 8 16 8C16.8333 8 17.5417 8.29167 18.125 8.875C18.7083 9.45833 19 10.1667 19 11C19 11.8333 18.7083 12.5417 18.125 13.125C17.5417 13.7083 16.8333 14 16 14ZM10 20V18.1C10 17.75 10.0833 17.4167 10.25 17.1C10.4167 16.7833 10.65 16.5333 10.95 16.35C11.7 15.9 12.496 15.5627 13.338 15.338C14.18 15.1133 15.0673 15.0007 16 15C16.9333 15 17.821 15.1127 18.663 15.338C19.505 15.5633 20.3007 15.9007 21.05 16.35C21.35 16.5333 21.5833 16.7833 21.75 17.1C21.9167 17.4167 22 17.75 22 18.1V20H10ZM3 14V12H11V14H3ZM3 6V4H15V6H3ZM11.1 10H3V8H12C11.7667 8.28333 11.579 8.59167 11.437 8.925C11.295 9.25833 11.1827 9.61667 11.1 10Z" fill="#64239A"/>
</g>
</svg>
