<svg width="25" height="25" viewBox="0 0 25 25" fill="none" xmlns="http://www.w3.org/2000/svg">
<g id="noto-v1:reminder-ribbon">
<path id="Vector" d="M12.5 18.082C9.66797 21.2988 7.03125 23.4375 7.03125 23.4375L4.10156 20.0039C4.10156 20.0039 7.45117 17.9492 10.1621 15.1191C10.8984 16.1758 11.6992 17.1719 12.5 18.082Z" fill="#A559DD"/>
<path id="Vector_2" d="M14.8379 15.1191C14.0293 14.2734 13.2246 13.3438 12.5 12.3496C13.8594 10.4844 14.9395 8.39844 15.2402 6.24805V6.24609C15.4453 4.80078 15.2969 3.32812 14.6484 1.87305C17.584 2.81445 18.1641 5.60352 18.1641 6.25C18.1641 9.3457 16.707 12.4336 14.8379 15.1191Z" fill="#A559DC"/>
<path id="Vector_3" d="M14.8379 15.1191C14.0293 14.2734 13.2246 13.3438 12.5 12.3496C11.1387 10.4824 10.0586 8.39453 9.75977 6.24219H9.75586C9.75586 6.24219 9.75781 6.24023 9.75977 6.24023V6.23828C9.55469 4.79492 9.70312 3.32617 10.3516 1.87305C7.41406 2.8125 6.83594 5.60352 6.83594 6.25C6.83594 9.3457 8.29297 12.4336 10.1621 15.1191C10.8984 16.1758 11.6992 17.1719 12.5 18.082C15.332 21.2988 17.9688 23.4375 17.9688 23.4375L20.8984 20.0039C20.8984 20.0039 17.5488 17.9492 14.8379 15.1191Z" fill="#CD9EF5"/>
<path id="Vector_4" d="M9.75977 6.24219H9.75586C9.75586 6.24219 9.75781 6.24023 9.75977 6.24023V6.23828C9.83008 6.18555 10.791 5.46289 12.4883 5.46289C14.1973 5.46289 15.1797 6.19922 15.2402 6.24609C15.4453 4.80078 15.2969 3.32812 14.6484 1.87305H14.6465C14.0371 1.67773 13.3262 1.5625 12.498 1.5625C11.6699 1.5625 10.9609 1.67773 10.3516 1.87305C9.70313 3.32617 9.55469 4.79492 9.75977 6.23828V6.24219Z" fill="#722EA9"/>
</g>
</svg>
