<svg width="37" height="37" viewBox="0 0 37 37" fill="none" xmlns="http://www.w3.org/2000/svg">
<g id="noto:toolbox">
<path id="Vector" d="M33.7827 9.33374H3.21727L1.15625 14.4415H35.8438L33.7827 9.33374Z" fill="#3B88C3"/>
<path id="Vector_2" d="M28.8773 7.69189H8.12264C7.73529 7.69189 7.34795 7.76127 6.98662 7.90002L3.21436 9.33377H33.7827L30.0104 7.90002C29.6491 7.76127 29.2647 7.69189 28.8773 7.69189Z" fill="#92BCD9"/>
<path id="Vector_3" d="M34.6788 33.9967H2.32117C1.67656 33.9967 1.15625 33.4764 1.15625 32.8318V14.4417H35.8438V32.8318C35.8438 33.4764 35.3234 33.9967 34.6788 33.9967Z" fill="#126EAD"/>
<path id="Vector_4" d="M1.15625 20.2632H35.8438" stroke="#A80707" stroke-width="2.133" stroke-miterlimit="10"/>
<path id="Vector_5" d="M11.866 18.8701H7.09073C6.81901 18.8701 6.59644 19.0609 6.59644 19.295V22.1018C6.59644 22.336 6.81612 22.5268 7.09073 22.5268H7.79894V23.9894C7.79894 24.6138 8.38573 25.1196 9.11128 25.1196H9.84839C10.571 25.1196 11.1607 24.6138 11.1607 23.9894V22.5268H11.8689C12.1407 22.5268 12.3632 22.336 12.3632 22.1018V19.295C12.3575 19.0609 12.1378 18.8701 11.866 18.8701Z" fill="#A80707"/>
<path id="Vector_6" d="M11.5278 21.9456H7.42596C7.25252 21.9456 7.11377 21.8069 7.11377 21.6334V18.6677C7.11377 18.4942 7.25252 18.3555 7.42596 18.3555H11.5249C11.6983 18.3555 11.8371 18.4942 11.8371 18.6677V21.6334C11.8399 21.8069 11.6983 21.9456 11.5278 21.9456Z" fill="#558EA0"/>
<path id="Vector_7" d="M8.09949 20.2432H10.8543" stroke="#332424" stroke-width="2.83" stroke-miterlimit="10"/>
<path id="Vector_8" d="M10.8543 19.8355H8.09957V18.3006C8.09957 18.0805 8.18698 17.8695 8.34256 17.7139C8.49814 17.5584 8.70915 17.4709 8.92918 17.4709H10.0276C10.2476 17.4709 10.4587 17.5584 10.6142 17.7139C10.7698 17.8695 10.8572 18.0805 10.8572 18.3006V19.8355H10.8543ZM8.09957 20.6044H10.8543V23.6627C10.8543 23.7716 10.8329 23.8795 10.7912 23.9801C10.7495 24.0808 10.6884 24.1723 10.6113 24.2493C10.5343 24.3263 10.4429 24.3874 10.3422 24.4291C10.2416 24.4708 10.1337 24.4923 10.0247 24.4923H8.92629C8.81734 24.4923 8.70946 24.4708 8.60881 24.4291C8.50816 24.3874 8.4167 24.3263 8.33967 24.2493C8.26263 24.1723 8.20152 24.0808 8.15983 23.9801C8.11814 23.8795 8.09668 23.7716 8.09668 23.6627V20.6044H8.09957Z" fill="#82AEC0"/>
<path id="Vector_9" d="M10.3571 23.0066C10.4814 23.0066 10.6288 23.1107 10.6635 23.2957C10.6809 23.3997 10.623 23.6136 10.5421 23.683C10.3947 23.8073 10.1981 23.8882 9.99288 23.9374C9.67492 24.0154 9.32804 24.0299 9.01296 23.946C8.69789 23.8651 8.36835 23.7061 8.27296 23.4431C8.12843 23.0413 8.66898 23.0124 10.3571 23.0066Z" fill="#A1D5E5"/>
<path id="Vector_10" d="M29.9093 18.8701H25.1339C24.8622 18.8701 24.6396 19.0609 24.6396 19.295V22.1018C24.6396 22.336 24.8593 22.5268 25.1339 22.5268H25.8421V23.9894C25.8421 24.6138 26.4289 25.1196 27.1545 25.1196H27.8916C28.6143 25.1196 29.2039 24.6138 29.2039 23.9894V22.5268H29.9121C30.1839 22.5268 30.4064 22.336 30.4064 22.1018V19.295C30.4036 19.0609 30.1839 18.8701 29.9093 18.8701Z" fill="#A80707"/>
<path id="Vector_11" d="M29.574 21.9456H25.4722C25.2988 21.9456 25.16 21.8069 25.16 21.6334V18.6677C25.16 18.4942 25.2988 18.3555 25.4722 18.3555H29.5711C29.7446 18.3555 29.8833 18.4942 29.8833 18.6677V21.6334C29.8833 21.8069 29.7446 21.9456 29.574 21.9456Z" fill="#558EA0"/>
<path id="Vector_12" d="M26.1458 20.2432H28.9005" stroke="#332424" stroke-width="2.83" stroke-miterlimit="10"/>
<path id="Vector_13" d="M28.9005 19.8355H26.1457V18.3006C26.1457 18.0805 26.2331 17.8695 26.3887 17.7139C26.5443 17.5584 26.7553 17.4709 26.9753 17.4709H28.0738C28.2938 17.4709 28.5048 17.5584 28.6604 17.7139C28.816 17.8695 28.9034 18.0805 28.9034 18.3006V19.8355H28.9005ZM26.1457 20.6044H28.9005V23.6627C28.9005 23.7716 28.879 23.8795 28.8373 23.9801C28.7956 24.0808 28.7345 24.1723 28.6575 24.2493C28.5805 24.3263 28.489 24.3874 28.3883 24.4291C28.2877 24.4708 28.1798 24.4923 28.0709 24.4923H26.9724C26.8635 24.4923 26.7556 24.4708 26.655 24.4291C26.5543 24.3874 26.4628 24.3263 26.3858 24.2493C26.3088 24.1723 26.2477 24.0808 26.206 23.9801C26.1643 23.8795 26.1428 23.7716 26.1428 23.6627V20.6044H26.1457Z" fill="#82AEC0"/>
<path id="Vector_14" d="M28.4871 23.0065C28.5739 23.0094 28.7328 23.0354 28.7906 23.206C28.8485 23.3765 28.7328 23.5558 28.5854 23.6801C28.438 23.8044 28.2414 23.8853 28.0362 23.9344C27.7182 24.0125 27.3713 24.0269 27.0563 23.9431C26.7412 23.8622 26.4579 23.6829 26.3163 23.4401C26.0908 23.0557 26.8453 22.9372 28.4871 23.0065Z" fill="#A1D5E5"/>
<path id="Vector_15" d="M26.1688 7.81924C26.033 7.63713 25.5878 7.45213 25.4577 7.37697C24.5877 6.85955 24.6773 5.43447 24.0934 4.50947C23.5731 3.68275 22.6452 3.00635 21.6681 3.00635H16.2135C15.2365 3.00635 14.3086 3.68564 13.7883 4.50947C13.2044 5.43447 13.294 6.85955 12.4239 7.37697C12.2967 7.45213 11.8487 7.64002 11.7128 7.81924C11.5452 8.04471 11.7128 8.28174 11.7128 8.28174H13.2911C14.0629 8.28174 14.4965 6.98385 14.563 6.80752C14.826 6.08486 15.3059 5.01822 16.2135 5.01822H21.6681C22.5758 5.01822 23.0556 6.08775 23.3187 6.80752C23.3823 6.98385 23.8159 8.28174 24.5906 8.28174H26.1688C26.1688 8.28174 26.3365 8.04471 26.1688 7.81924Z" fill="#424242"/>
<path id="Vector_16" d="M14.8058 3.87046C15.2192 3.52648 15.7539 3.32124 16.2916 3.32702C16.439 3.32991 16.5922 3.34726 16.7165 3.42819C16.8408 3.50913 16.9275 3.66234 16.8899 3.80687C16.8495 3.96007 16.6905 4.04968 16.5431 4.10749C16.0083 4.31562 15.3897 4.36187 14.9648 4.74343C14.6728 5.00648 14.5196 5.38515 14.3115 5.71757C14.2103 5.87945 14.0745 6.04421 13.8837 6.06445C13.8172 6.07023 13.7449 6.05577 13.7016 6.00663C13.6264 5.91991 13.6727 5.78695 13.7218 5.68577C13.8808 5.35624 13.9733 5.00937 14.1438 4.68851C14.3231 4.35898 14.5572 4.13351 14.8058 3.87046Z" fill="#616161"/>
<path id="Vector_17" d="M9.59682 18.341C9.22682 18.3554 8.86839 18.5491 8.68339 18.8382C8.64003 18.9047 8.57932 18.9856 8.49839 18.9682C8.43479 18.9538 8.40878 18.8873 8.39432 18.8295C8.33362 18.5867 8.31339 18.3063 8.45503 18.0837C8.60245 17.8496 8.88862 17.7137 9.16612 17.679C9.7269 17.6125 10.1432 17.5865 10.2385 17.9363C10.3513 18.3497 9.89167 18.3294 9.59682 18.341ZM27.6285 18.341C27.2585 18.3554 26.9001 18.5491 26.7151 18.8382C26.6717 18.9047 26.611 18.9856 26.5301 18.9682C26.4665 18.9538 26.4405 18.8873 26.426 18.8295C26.3653 18.5867 26.3451 18.3063 26.4867 18.0837C26.6342 17.8496 26.9203 17.7137 27.1978 17.679C27.7586 17.6125 28.1749 17.5865 28.2703 17.9363C28.3859 18.3497 27.9234 18.3294 27.6285 18.341Z" fill="#A1D5E5"/>
</g>
</svg>
