<svg width="263" height="118" viewBox="0 0 263 118" fill="none" xmlns="http://www.w3.org/2000/svg">
<path d="M1.026 1H95.4923L119.47 33.2577L121.231 35.6269L147.895 71.5L149.543 74.5V117H76.5017C59.4437 110.441 53.1492 102.544 49.7112 77C49.7112 77 47.578 75.6648 44.1654 73.7164C36.7184 69.4647 24.6913 59.0237 23.556 35.6269C21.9886 34.8487 20.5162 34.0603 19.1349 33.2577C5.30114 25.2202 0.60239 15.766 1.026 1Z" fill="url(#paint0_linear_220_1496)"/>
<path d="M149.543 74.5L49.7112 77M149.543 74.5V117M149.543 74.5L147.895 71.5M263 117H149.543M23.556 35.6269H121.231M23.556 35.6269C21.9886 34.8487 20.5162 34.0603 19.1349 33.2577M23.556 35.6269C24.6913 59.0237 36.7184 69.4647 44.1654 73.7164M121.231 35.6269L119.47 33.2577M121.231 35.6269L147.895 71.5M49.7112 77C53.1492 102.544 59.4437 110.441 76.5017 117H149.543M49.7112 77C49.7112 77 47.578 75.6648 44.1654 73.7164M119.47 33.2577L95.4923 1H1.026C0.60239 15.766 5.30114 25.2202 19.1349 33.2577M119.47 33.2577C116.189 33.0515 51.2128 33.1718 19.1349 33.2577M147.895 71.5L44.1654 73.7164" stroke="#BA0F0F"/>
<defs>
<linearGradient id="paint0_linear_220_1496" x1="132" y1="1" x2="132" y2="117" gradientUnits="userSpaceOnUse">
<stop stop-color="#0075FF"/>
<stop offset="1" stop-color="#E800FC" stop-opacity="0.15"/>
</linearGradient>
</defs>
</svg>
