<svg width="263" height="118" viewBox="0 0 263 118" fill="none" xmlns="http://www.w3.org/2000/svg">
<path d="M261.974 1H167.508L143.53 33.2577L141.769 35.6269L115.105 71.5L113.457 74.5V117H186.498C203.556 110.441 209.851 102.544 213.289 77C213.289 77 215.422 75.6648 218.835 73.7164C226.282 69.4647 238.309 59.0237 239.444 35.6269C241.011 34.8487 242.484 34.0603 243.865 33.2577C257.699 25.2202 262.398 15.766 261.974 1Z" fill="url(#paint0_linear_220_1501)"/>
<path d="M113.457 74.5L213.289 77M113.457 74.5V117M113.457 74.5L115.105 71.5M8.22544e-06 117H113.457M239.444 35.6269H141.769M239.444 35.6269C241.011 34.8487 242.484 34.0603 243.865 33.2577M239.444 35.6269C238.309 59.0237 226.282 69.4647 218.835 73.7164M141.769 35.6269L143.53 33.2577M141.769 35.6269L115.105 71.5M213.289 77C209.851 102.544 203.556 110.441 186.498 117H113.457M213.289 77C213.289 77 215.422 75.6648 218.835 73.7164M143.53 33.2577L167.508 1H261.974C262.398 15.766 257.699 25.2202 243.865 33.2577M143.53 33.2577C146.811 33.0515 211.787 33.1718 243.865 33.2577M115.105 71.5L218.835 73.7164" stroke="#BA0F0F"/>
<defs>
<linearGradient id="paint0_linear_220_1501" x1="131" y1="1" x2="131" y2="117" gradientUnits="userSpaceOnUse">
<stop stop-color="#0075FF"/>
<stop offset="1" stop-color="#E800FC" stop-opacity="0.15"/>
</linearGradient>
</defs>
</svg>
