<svg width="17" height="17" viewBox="0 0 17 17" fill="none" xmlns="http://www.w3.org/2000/svg">
<path id="Vector" d="M8.5 12.75C8.74083 12.75 8.94285 12.6684 9.10605 12.5052C9.26868 12.3426 9.35 12.1408 9.35 11.9V9.35H11.9212C12.1621 9.35 12.3604 9.2684 12.5163 9.1052C12.6721 8.94257 12.75 8.74083 12.75 8.5C12.75 8.25917 12.6684 8.05715 12.5052 7.89395C12.3426 7.73132 12.1408 7.65 11.9 7.65H9.35V5.07875C9.35 4.83792 9.26868 4.63958 9.10605 4.48375C8.94285 4.32792 8.74083 4.25 8.5 4.25C8.25917 4.25 8.05743 4.33132 7.8948 4.49395C7.7316 4.65715 7.65 4.85917 7.65 5.1V7.65H5.07875C4.83792 7.65 4.63958 7.73132 4.48375 7.89395C4.32792 8.05715 4.25 8.25917 4.25 8.5C4.25 8.74083 4.33132 8.94257 4.49395 9.1052C4.65715 9.2684 4.85917 9.35 5.1 9.35H7.65V11.9212C7.65 12.1621 7.7316 12.3604 7.8948 12.5163C8.05743 12.6721 8.25917 12.75 8.5 12.75ZM8.5 17C7.32417 17 6.21917 16.7767 5.185 16.3302C4.15083 15.8842 3.25125 15.2788 2.48625 14.5138C1.72125 13.7488 1.11577 12.8492 0.6698 11.815C0.223267 10.7808 0 9.67583 0 8.5C0 7.32417 0.223267 6.21917 0.6698 5.185C1.11577 4.15083 1.72125 3.25125 2.48625 2.48625C3.25125 1.72125 4.15083 1.11548 5.185 0.66895C6.21917 0.222983 7.32417 0 8.5 0C9.67583 0 10.7808 0.222983 11.815 0.66895C12.8492 1.11548 13.7488 1.72125 14.5138 2.48625C15.2788 3.25125 15.8842 4.15083 16.3302 5.185C16.7767 6.21917 17 7.32417 17 8.5C17 9.67583 16.7767 10.7808 16.3302 11.815C15.8842 12.8492 15.2788 13.7488 14.5138 14.5138C13.7488 15.2788 12.8492 15.8842 11.815 16.3302C10.7808 16.7767 9.67583 17 8.5 17Z" fill="#8EBF49"/>
</svg>
